<svg width="1280" height="720" xmlns="http://www.w3.org/2000/svg" xmlns:xlink="http://www.w3.org/1999/xlink" overflow="hidden"><defs><filter id="fx0" x="-10%" y="-10%" width="120%" height="120%" filterUnits="userSpaceOnUse" primitiveUnits="userSpaceOnUse"><feComponentTransfer color-interpolation-filters="sRGB"><feFuncR type="discrete" tableValues="0 0"/><feFuncG type="discrete" tableValues="0 0"/><feFuncB type="discrete" tableValues="0 0"/><feFuncA type="linear" slope="0.4" intercept="0"/></feComponentTransfer><feGaussianBlur stdDeviation="1.77778 1.77778"/></filter><filter id="fx1" x="-10%" y="-10%" width="120%" height="120%" filterUnits="userSpaceOnUse" primitiveUnits="userSpaceOnUse"><feComponentTransfer color-interpolation-filters="sRGB"><feFuncR type="discrete" tableValues="0 0"/><feFuncG type="discrete" tableValues="0 0"/><feFuncB type="discrete" tableValues="0 0"/><feFuncA type="linear" slope="0.4" intercept="0"/></feComponentTransfer><feGaussianBlur stdDeviation="1.77778 1.77778"/></filter><filter id="fx2" x="-10%" y="-10%" width="120%" height="120%" filterUnits="userSpaceOnUse" primitiveUnits="userSpaceOnUse"><feComponentTransfer color-interpolation-filters="sRGB"><feFuncR type="discrete" tableValues="0 0"/><feFuncG type="discrete" tableValues="0 0"/><feFuncB type="discrete" tableValues="0 0"/><feFuncA type="linear" slope="0.4" intercept="0"/></feComponentTransfer><feGaussianBlur stdDeviation="1.77778 1.77778"/></filter><filter id="fx3" x="-10%" y="-10%" width="120%" height="120%" filterUnits="userSpaceOnUse" primitiveUnits="userSpaceOnUse"><feComponentTransfer color-interpolation-filters="sRGB"><feFuncR type="discrete" tableValues="0 0"/><feFuncG type="discrete" tableValues="0 0"/><feFuncB type="discrete" tableValues="0 0"/><feFuncA type="linear" slope="0.4" intercept="0"/></feComponentTransfer><feGaussianBlur stdDeviation="1.77778 1.77778"/></filter><filter id="fx4" x="-10%" y="-10%" width="120%" height="120%" filterUnits="userSpaceOnUse" primitiveUnits="userSpaceOnUse"><feComponentTransfer color-interpolation-filters="sRGB"><feFuncR type="discrete" tableValues="0 0"/><feFuncG type="discrete" tableValues="0 0"/><feFuncB type="discrete" tableValues="0 0"/><feFuncA type="linear" slope="0.4" intercept="0"/></feComponentTransfer><feGaussianBlur stdDeviation="1.77778 1.77778"/></filter><filter id="fx5" x="-10%" y="-10%" width="120%" height="120%" filterUnits="userSpaceOnUse" primitiveUnits="userSpaceOnUse"><feComponentTransfer color-interpolation-filters="sRGB"><feFuncR type="discrete" tableValues="0 0"/><feFuncG type="discrete" tableValues="0 0"/><feFuncB type="discrete" tableValues="0 0"/><feFuncA type="linear" slope="0.4" intercept="0"/></feComponentTransfer><feGaussianBlur stdDeviation="1.77778 1.77778"/></filter><filter id="fx6" x="-10%" y="-10%" width="120%" height="120%" filterUnits="userSpaceOnUse" primitiveUnits="userSpaceOnUse"><feComponentTransfer color-interpolation-filters="sRGB"><feFuncR type="discrete" tableValues="0 0"/><feFuncG type="discrete" tableValues="0 0"/><feFuncB type="discrete" tableValues="0 0"/><feFuncA type="linear" slope="0.4" intercept="0"/></feComponentTransfer><feGaussianBlur stdDeviation="1.77778 1.77778"/></filter><filter id="fx7" x="-10%" y="-10%" width="120%" height="120%" filterUnits="userSpaceOnUse" primitiveUnits="userSpaceOnUse"><feComponentTransfer color-interpolation-filters="sRGB"><feFuncR type="discrete" tableValues="0 0"/><feFuncG type="discrete" tableValues="0 0"/><feFuncB type="discrete" tableValues="0 0"/><feFuncA type="linear" slope="0.4" intercept="0"/></feComponentTransfer><feGaussianBlur stdDeviation="1.77778 1.77778"/></filter><filter id="fx8" x="-10%" y="-10%" width="120%" height="120%" filterUnits="userSpaceOnUse" primitiveUnits="userSpaceOnUse"><feComponentTransfer color-interpolation-filters="sRGB"><feFuncR type="discrete" tableValues="0 0"/><feFuncG type="discrete" tableValues="0 0"/><feFuncB type="discrete" tableValues="0 0"/><feFuncA type="linear" slope="0.4" intercept="0"/></feComponentTransfer><feGaussianBlur stdDeviation="1.77778 1.77778"/></filter><filter id="fx9" x="-10%" y="-10%" width="120%" height="120%" filterUnits="userSpaceOnUse" primitiveUnits="userSpaceOnUse"><feComponentTransfer color-interpolation-filters="sRGB"><feFuncR type="discrete" tableValues="0 0"/><feFuncG type="discrete" tableValues="0 0"/><feFuncB type="discrete" tableValues="0 0"/><feFuncA type="linear" slope="0.4" intercept="0"/></feComponentTransfer><feGaussianBlur stdDeviation="1.77778 1.77778"/></filter><filter id="fx10" x="-10%" y="-10%" width="120%" height="120%" filterUnits="userSpaceOnUse" primitiveUnits="userSpaceOnUse"><feComponentTransfer color-interpolation-filters="sRGB"><feFuncR type="discrete" tableValues="0 0"/><feFuncG type="discrete" tableValues="0 0"/><feFuncB type="discrete" tableValues="0 0"/><feFuncA type="linear" slope="0.4" intercept="0"/></feComponentTransfer><feGaussianBlur stdDeviation="1.77778 1.77778"/></filter><filter id="fx11" x="-10%" y="-10%" width="120%" height="120%" filterUnits="userSpaceOnUse" primitiveUnits="userSpaceOnUse"><feComponentTransfer color-interpolation-filters="sRGB"><feFuncR type="discrete" tableValues="0 0"/><feFuncG type="discrete" tableValues="0 0"/><feFuncB type="discrete" tableValues="0 0"/><feFuncA type="linear" slope="0.4" intercept="0"/></feComponentTransfer><feGaussianBlur stdDeviation="1.77778 1.77778"/></filter><filter id="fx12" x="-10%" y="-10%" width="120%" height="120%" filterUnits="userSpaceOnUse" primitiveUnits="userSpaceOnUse"><feComponentTransfer color-interpolation-filters="sRGB"><feFuncR type="discrete" tableValues="0 0"/><feFuncG type="discrete" tableValues="0 0"/><feFuncB type="discrete" tableValues="0 0"/><feFuncA type="linear" slope="0.4" intercept="0"/></feComponentTransfer><feGaussianBlur stdDeviation="1.77778 1.77778"/></filter><filter id="fx13" x="-10%" y="-10%" width="120%" height="120%" filterUnits="userSpaceOnUse" primitiveUnits="userSpaceOnUse"><feComponentTransfer color-interpolation-filters="sRGB"><feFuncR type="discrete" tableValues="0 0"/><feFuncG type="discrete" tableValues="0 0"/><feFuncB type="discrete" tableValues="0 0"/><feFuncA type="linear" slope="0.4" intercept="0"/></feComponentTransfer><feGaussianBlur stdDeviation="1.77778 1.77778"/></filter><filter id="fx14" x="-10%" y="-10%" width="120%" height="120%" filterUnits="userSpaceOnUse" primitiveUnits="userSpaceOnUse"><feComponentTransfer color-interpolation-filters="sRGB"><feFuncR type="discrete" tableValues="0 0"/><feFuncG type="discrete" tableValues="0 0"/><feFuncB type="discrete" tableValues="0 0"/><feFuncA type="linear" slope="0.4" intercept="0"/></feComponentTransfer><feGaussianBlur stdDeviation="1.77778 1.77778"/></filter><filter id="fx15" x="-10%" y="-10%" width="120%" height="120%" filterUnits="userSpaceOnUse" primitiveUnits="userSpaceOnUse"><feComponentTransfer color-interpolation-filters="sRGB"><feFuncR type="discrete" tableValues="0 0"/><feFuncG type="discrete" tableValues="0 0"/><feFuncB type="discrete" tableValues="0 0"/><feFuncA type="linear" slope="0.4" intercept="0"/></feComponentTransfer><feGaussianBlur stdDeviation="1.77778 1.77778"/></filter><clipPath id="clip16"><rect x="0" y="0" width="1280" height="720"/></clipPath><clipPath id="clip17"><path d="M31.667 0.50006C25.4997 0.50006 20.5001 5.49969 20.5001 11.667L20.5001 56.3331C20.5001 62.5005 25.4997 67.5001 31.667 67.5001L214.333 67.5001C220.5 67.5001 225.5 62.5005 225.5 56.3331L225.5 11.667C225.5 5.49969 220.5 0.50006 214.333 0.50006ZM1.90735e-05 1.07288e-05 1280 1.07288e-05 1280 720 1.90735e-05 720Z" fill-rule="evenodd" clip-rule="evenodd"/></clipPath><linearGradient x1="82.8691" y1="-35.5087" x2="163.131" y2="103.509" gradientUnits="userSpaceOnUse" spreadMethod="reflect" id="fill18"><stop offset="0" stop-color="#828181"/><stop offset="0.28" stop-color="#1B1B1B"/><stop offset="0.6" stop-color="#040303"/><stop offset="1" stop-color="#040303"/></linearGradient><clipPath id="clip19"><path d="M246.667 0.50006C240.5 0.50006 235.5 5.49969 235.5 11.667L235.5 56.3331C235.5 62.5005 240.5 67.5001 246.667 67.5001L429.333 67.5001C435.5 67.5001 440.5 62.5005 440.5 56.3331L440.5 11.667C440.5 5.49969 435.5 0.50006 429.333 0.50006ZM1.90735e-05 1.07288e-05 1280 1.07288e-05 1280 720 1.90735e-05 720Z" fill-rule="evenodd" clip-rule="evenodd"/></clipPath><linearGradient x1="297.869" y1="-35.5087" x2="378.131" y2="103.509" gradientUnits="userSpaceOnUse" spreadMethod="reflect" id="fill20"><stop offset="0" stop-color="#828181"/><stop offset="0.28" stop-color="#1B1B1B"/><stop offset="0.6" stop-color="#040303"/><stop offset="1" stop-color="#040303"/></linearGradient><clipPath id="clip21"><path d="M31.667 221.5C25.4997 221.5 20.5001 226.5 20.5001 232.667L20.5001 277.333C20.5001 283.5 25.4997 288.5 31.667 288.5L214.333 288.5C220.5 288.5 225.5 283.5 225.5 277.333L225.5 232.667C225.5 226.5 220.5 221.5 214.333 221.5ZM1.90735e-05 1.07288e-05 1280 1.07288e-05 1280 720 1.90735e-05 720Z" fill-rule="evenodd" clip-rule="evenodd"/></clipPath><linearGradient x1="82.8691" y1="185.491" x2="163.131" y2="324.509" gradientUnits="userSpaceOnUse" spreadMethod="reflect" id="fill22"><stop offset="0" stop-color="#828181"/><stop offset="0.28" stop-color="#1B1B1B"/><stop offset="0.6" stop-color="#040303"/><stop offset="1" stop-color="#040303"/></linearGradient><clipPath id="clip23"><path d="M246.667 224.5C240.5 224.5 235.5 229.5 235.5 235.667L235.5 280.333C235.5 286.5 240.5 291.5 246.667 291.5L429.333 291.5C435.5 291.5 440.5 286.5 440.5 280.333L440.5 235.667C440.5 229.5 435.5 224.5 429.333 224.5ZM1.90735e-05 1.07288e-05 1280 1.07288e-05 1280 720 1.90735e-05 720Z" fill-rule="evenodd" clip-rule="evenodd"/></clipPath><linearGradient x1="297.869" y1="188.491" x2="378.131" y2="327.509" gradientUnits="userSpaceOnUse" spreadMethod="reflect" id="fill24"><stop offset="0" stop-color="#828181"/><stop offset="0.28" stop-color="#1B1B1B"/><stop offset="0.6" stop-color="#040303"/><stop offset="1" stop-color="#040303"/></linearGradient><clipPath id="clip25"><path d="M86.5002 146.5C80.425 146.5 75.5001 151.425 75.5001 157.5L75.5001 201.5C75.5001 207.575 80.425 212.5 86.5002 212.5L214.5 212.5C220.575 212.5 225.5 207.575 225.5 201.5L225.5 157.5C225.5 151.425 220.575 146.5 214.5 146.5ZM1.90735e-05 1.07288e-05 1280 1.07288e-05 1280 720 1.90735e-05 720Z" fill-rule="evenodd" clip-rule="evenodd"/></clipPath><linearGradient x1="117.461" y1="122.274" x2="183.539" y2="236.726" gradientUnits="userSpaceOnUse" spreadMethod="reflect" id="fill26"><stop offset="0" stop-color="#828181"/><stop offset="0.28" stop-color="#1B1B1B"/><stop offset="0.6" stop-color="#040303"/><stop offset="1" stop-color="#040303"/></linearGradient><clipPath id="clip27"><path d="M246.5 146.5C240.425 146.5 235.5 151.425 235.5 157.5L235.5 201.5C235.5 207.575 240.425 212.5 246.5 212.5L374.5 212.5C380.575 212.5 385.5 207.575 385.5 201.5L385.5 157.5C385.5 151.425 380.575 146.5 374.5 146.5ZM1.90735e-05 1.07288e-05 1280 1.07288e-05 1280 720 1.90735e-05 720Z" fill-rule="evenodd" clip-rule="evenodd"/></clipPath><linearGradient x1="277.461" y1="122.274" x2="343.539" y2="236.726" gradientUnits="userSpaceOnUse" spreadMethod="reflect" id="fill28"><stop offset="0" stop-color="#828181"/><stop offset="0.28" stop-color="#1B1B1B"/><stop offset="0.6" stop-color="#040303"/><stop offset="1" stop-color="#040303"/></linearGradient><clipPath id="clip29"><path d="M246.5 75.5001C240.425 75.5001 235.5 80.425 235.5 86.5002L235.5 130.5C235.5 136.575 240.425 141.5 246.5 141.5L374.5 141.5C380.575 141.5 385.5 136.575 385.5 130.5L385.5 86.5002C385.5 80.425 380.575 75.5001 374.5 75.5001ZM1.90735e-05 1.07288e-05 1280 1.07288e-05 1280 720 1.90735e-05 720Z" fill-rule="evenodd" clip-rule="evenodd"/></clipPath><linearGradient x1="277.461" y1="51.2741" x2="343.539" y2="165.726" gradientUnits="userSpaceOnUse" spreadMethod="reflect" id="fill30"><stop offset="0" stop-color="#828181"/><stop offset="0.28" stop-color="#1B1B1B"/><stop offset="0.6" stop-color="#040303"/><stop offset="1" stop-color="#040303"/></linearGradient><clipPath id="clip31"><path d="M86.6669 74.5001C80.4996 74.5001 75.5001 79.4996 75.5001 85.6669L75.5001 130.333C75.5001 136.501 80.4996 141.5 86.6669 141.5L214.333 141.5C220.501 141.5 225.5 136.501 225.5 130.333L225.5 85.6669C225.5 79.4996 220.501 74.5001 214.333 74.5001ZM1.90735e-05 1.07288e-05 1280 1.07288e-05 1280 720 1.90735e-05 720Z" fill-rule="evenodd" clip-rule="evenodd"/></clipPath><linearGradient x1="117.244" y1="50.3991" x2="183.756" y2="165.601" gradientUnits="userSpaceOnUse" spreadMethod="reflect" id="fill32"><stop offset="0" stop-color="#828181"/><stop offset="0.28" stop-color="#1B1B1B"/><stop offset="0.6" stop-color="#040303"/><stop offset="1" stop-color="#040303"/></linearGradient><linearGradient x1="81.6344" y1="259.317" x2="369.366" y2="757.683" gradientUnits="userSpaceOnUse" spreadMethod="reflect" id="fill33"><stop offset="0" stop-color="#828181"/><stop offset="0.28" stop-color="#1B1B1B"/><stop offset="0.6" stop-color="#040303"/><stop offset="1" stop-color="#040303"/></linearGradient><clipPath id="clip34"><path d="M451.5 534.5C445.425 534.5 440.5 539.425 440.5 545.5L440.5 589.5C440.5 595.575 445.425 600.5 451.5 600.5L580.5 600.5C586.575 600.5 591.5 595.575 591.5 589.5L591.5 545.5C591.5 539.425 586.575 534.5 580.5 534.5ZM1.90735e-05 1.07288e-05 1280 1.07288e-05 1280 720 1.90735e-05 720Z" fill-rule="evenodd" clip-rule="evenodd"/></clipPath><linearGradient x1="482.836" y1="510.058" x2="549.164" y2="624.943" gradientUnits="userSpaceOnUse" spreadMethod="reflect" id="fill35"><stop offset="0" stop-color="#828181"/><stop offset="0.28" stop-color="#1B1B1B"/><stop offset="0.6" stop-color="#040303"/><stop offset="1" stop-color="#040303"/></linearGradient><clipPath id="clip36"><path d="M852.5 534.5C846.425 534.5 841.5 539.425 841.5 545.5L841.5 589.5C841.5 595.575 846.425 600.5 852.5 600.5L981.5 600.5C987.575 600.5 992.5 595.575 992.5 589.5L992.5 545.5C992.5 539.425 987.575 534.5 981.5 534.5ZM1.90735e-05 1.07288e-05 1280 1.07288e-05 1280 720 1.90735e-05 720Z" fill-rule="evenodd" clip-rule="evenodd"/></clipPath><linearGradient x1="883.836" y1="510.058" x2="950.164" y2="624.943" gradientUnits="userSpaceOnUse" spreadMethod="reflect" id="fill37"><stop offset="0" stop-color="#828181"/><stop offset="0.28" stop-color="#1B1B1B"/><stop offset="0.6" stop-color="#040303"/><stop offset="1" stop-color="#040303"/></linearGradient><clipPath id="clip38"><path d="M451.5 610.5C445.425 610.5 440.5 615.425 440.5 621.5L440.5 665.5C440.5 671.575 445.425 676.5 451.5 676.5L580.5 676.5C586.575 676.5 591.5 671.575 591.5 665.5L591.5 621.5C591.5 615.425 586.575 610.5 580.5 610.5ZM1.90735e-05 1.07288e-05 1280 1.07288e-05 1280 720 1.90735e-05 720Z" fill-rule="evenodd" clip-rule="evenodd"/></clipPath><linearGradient x1="482.836" y1="586.058" x2="549.164" y2="700.943" gradientUnits="userSpaceOnUse" spreadMethod="reflect" id="fill39"><stop offset="0" stop-color="#828181"/><stop offset="0.28" stop-color="#1B1B1B"/><stop offset="0.6" stop-color="#040303"/><stop offset="1" stop-color="#040303"/></linearGradient><clipPath id="clip40"><path d="M852.5 610.5C846.425 610.5 841.5 615.425 841.5 621.5L841.5 665.5C841.5 671.575 846.425 676.5 852.5 676.5L981.5 676.5C987.575 676.5 992.5 671.575 992.5 665.5L992.5 621.5C992.5 615.425 987.575 610.5 981.5 610.5ZM1.90735e-05 1.07288e-05 1280 1.07288e-05 1280 720 1.90735e-05 720Z" fill-rule="evenodd" clip-rule="evenodd"/></clipPath><linearGradient x1="883.836" y1="586.058" x2="950.164" y2="700.943" gradientUnits="userSpaceOnUse" spreadMethod="reflect" id="fill41"><stop offset="0" stop-color="#828181"/><stop offset="0.28" stop-color="#1B1B1B"/><stop offset="0.6" stop-color="#040303"/><stop offset="1" stop-color="#040303"/></linearGradient><clipPath id="clip42"><path d="M651.5 534.5C645.425 534.5 640.5 539.425 640.5 545.5L640.5 589.5C640.5 595.575 645.425 600.5 651.5 600.5L780.5 600.5C786.575 600.5 791.5 595.575 791.5 589.5L791.5 545.5C791.5 539.425 786.575 534.5 780.5 534.5ZM1.90735e-05 1.07288e-05 1280 1.07288e-05 1280 720 1.90735e-05 720Z" fill-rule="evenodd" clip-rule="evenodd"/></clipPath><linearGradient x1="682.836" y1="510.058" x2="749.164" y2="624.943" gradientUnits="userSpaceOnUse" spreadMethod="reflect" id="fill43"><stop offset="0" stop-color="#828181"/><stop offset="0.28" stop-color="#1B1B1B"/><stop offset="0.6" stop-color="#040303"/><stop offset="1" stop-color="#040303"/></linearGradient><linearGradient x1="538.051" y1="-51.7794" x2="900.949" y2="576.78" gradientUnits="userSpaceOnUse" spreadMethod="reflect" id="fill44"><stop offset="0" stop-color="#828181"/><stop offset="0.28" stop-color="#1B1B1B"/><stop offset="0.6" stop-color="#040303"/><stop offset="1" stop-color="#040303"/></linearGradient><linearGradient x1="975.572" y1="12.4697" x2="1306.43" y2="585.53" gradientUnits="userSpaceOnUse" spreadMethod="reflect" id="fill45"><stop offset="0" stop-color="#828181"/><stop offset="0.28" stop-color="#1B1B1B"/><stop offset="0.6" stop-color="#040303"/><stop offset="1" stop-color="#040303"/></linearGradient></defs><g clip-path="url(#clip16)"><rect x="0" y="0" width="1280" height="720" fill="#232324"/><g clip-path="url(#clip17)"><g filter="url(#fx0)" transform="translate(10 -6)"><g><path d="M7.67163 14.8386C7.67163 8.67125 12.6712 3.67163 18.8386 3.67163L201.505 3.67163C207.672 3.67163 212.672 8.67125 212.672 14.8386L212.672 59.5047C212.672 65.672 207.672 70.6716 201.505 70.6716L18.8386 70.6716C12.6712 70.6716 7.67163 65.672 7.67163 59.5047Z" stroke="#E66C37" stroke-miterlimit="8" fill="#FF0000" fill-rule="evenodd"/></g></g></g><path d="M20.5001 11.667C20.5001 5.49967 25.4997 0.500053 31.667 0.500053L214.333 0.500053C220.5 0.500053 225.5 5.49967 225.5 11.667L225.5 56.3331C225.5 62.5004 220.5 67.5001 214.333 67.5001L31.667 67.5001C25.4997 67.5001 20.5001 62.5004 20.5001 56.3331Z" stroke="#E66C37" stroke-width="1.33333" stroke-miterlimit="8" fill="url(#fill18)" fill-rule="evenodd"/><g clip-path="url(#clip19)"><g filter="url(#fx1)" transform="translate(225 -6)"><g><path d="M7.67163 14.8386C7.67163 8.67125 12.6712 3.67163 18.8386 3.67163L201.505 3.67163C207.672 3.67163 212.672 8.67125 212.672 14.8386L212.672 59.5047C212.672 65.672 207.672 70.6716 201.505 70.6716L18.8386 70.6716C12.6712 70.6716 7.67163 65.672 7.67163 59.5047Z" stroke="#E66C37" stroke-miterlimit="8" fill="#FF0000" fill-rule="evenodd"/></g></g></g><path d="M235.5 11.667C235.5 5.49967 240.5 0.500053 246.667 0.500053L429.333 0.500053C435.5 0.500053 440.5 5.49967 440.5 11.667L440.5 56.3331C440.5 62.5004 435.5 67.5001 429.333 67.5001L246.667 67.5001C240.5 67.5001 235.5 62.5004 235.5 56.3331Z" stroke="#E66C37" stroke-width="1.33333" stroke-miterlimit="8" fill="url(#fill20)" fill-rule="evenodd"/><g clip-path="url(#clip21)"><g filter="url(#fx2)" transform="translate(10 211)"><g><path d="M7.67163 18.8386C7.67163 12.6713 12.6712 7.67163 18.8386 7.67163L201.505 7.67163C207.672 7.67163 212.672 12.6713 212.672 18.8386L212.672 63.5047C212.672 69.672 207.672 74.6716 201.505 74.6716L18.8386 74.6716C12.6712 74.6716 7.67163 69.672 7.67163 63.5047Z" stroke="#E66C37" stroke-miterlimit="8" fill="#FF0000" fill-rule="evenodd"/></g></g></g><path d="M20.5001 232.667C20.5001 226.5 25.4997 221.5 31.667 221.5L214.333 221.5C220.5 221.5 225.5 226.5 225.5 232.667L225.5 277.333C225.5 283.5 220.5 288.5 214.333 288.5L31.667 288.5C25.4997 288.5 20.5001 283.5 20.5001 277.333Z" stroke="#E66C37" stroke-width="1.33333" stroke-miterlimit="8" fill="url(#fill22)" fill-rule="evenodd"/><g clip-path="url(#clip23)"><g filter="url(#fx3)" transform="translate(225 214)"><g><path d="M7.67163 18.8386C7.67163 12.6713 12.6712 7.67163 18.8386 7.67163L201.505 7.67163C207.672 7.67163 212.672 12.6713 212.672 18.8386L212.672 63.5047C212.672 69.672 207.672 74.6716 201.505 74.6716L18.8386 74.6716C12.6712 74.6716 7.67163 69.672 7.67163 63.5047Z" stroke="#E66C37" stroke-miterlimit="8" fill="#FF0000" fill-rule="evenodd"/></g></g></g><path d="M235.5 235.667C235.5 229.5 240.5 224.5 246.667 224.5L429.333 224.5C435.5 224.5 440.5 229.5 440.5 235.667L440.5 280.333C440.5 286.5 435.5 291.5 429.333 291.5L246.667 291.5C240.5 291.5 235.5 286.5 235.5 280.333Z" stroke="#E66C37" stroke-width="1.33333" stroke-miterlimit="8" fill="url(#fill24)" fill-rule="evenodd"/><g clip-path="url(#clip25)"><g filter="url(#fx4)" transform="translate(65 136)"><g><path d="M7.67162 18.6718C7.67162 12.5966 12.5966 7.67163 18.6718 7.67163L146.671 7.67163C152.747 7.67163 157.672 12.5966 157.672 18.6718L157.672 62.6715C157.672 68.7467 152.747 73.6716 146.671 73.6716L18.6718 73.6716C12.5966 73.6716 7.67162 68.7467 7.67162 62.6715Z" stroke="#E66C37" stroke-miterlimit="8" fill="#FF0000" fill-rule="evenodd"/></g></g></g><path d="M75.5001 157.5C75.5001 151.425 80.425 146.5 86.5002 146.5L214.5 146.5C220.575 146.5 225.5 151.425 225.5 157.5L225.5 201.5C225.5 207.575 220.575 212.5 214.5 212.5L86.5002 212.5C80.425 212.5 75.5001 207.575 75.5001 201.5Z" stroke="#E66C37" stroke-width="1.33333" stroke-miterlimit="8" fill="url(#fill26)" fill-rule="evenodd"/><g clip-path="url(#clip27)"><g filter="url(#fx5)" transform="translate(225 136)"><g><path d="M7.67163 18.6718C7.67163 12.5966 12.5966 7.67163 18.6718 7.67163L146.671 7.67163C152.747 7.67163 157.672 12.5966 157.672 18.6718L157.672 62.6715C157.672 68.7467 152.747 73.6716 146.671 73.6716L18.6718 73.6716C12.5966 73.6716 7.67163 68.7467 7.67163 62.6715Z" stroke="#E66C37" stroke-miterlimit="8" fill="#FF0000" fill-rule="evenodd"/></g></g></g><path d="M235.5 157.5C235.5 151.425 240.425 146.5 246.5 146.5L374.5 146.5C380.575 146.5 385.5 151.425 385.5 157.5L385.5 201.5C385.5 207.575 380.575 212.5 374.5 212.5L246.5 212.5C240.425 212.5 235.5 207.575 235.5 201.5Z" stroke="#E66C37" stroke-width="1.33333" stroke-miterlimit="8" fill="url(#fill28)" fill-rule="evenodd"/><g clip-path="url(#clip29)"><g filter="url(#fx6)" transform="translate(225 65)"><g><path d="M7.67163 18.6718C7.67163 12.5966 12.5966 7.67162 18.6718 7.67162L146.671 7.67162C152.747 7.67162 157.672 12.5966 157.672 18.6718L157.672 62.6715C157.672 68.7467 152.747 73.6716 146.671 73.6716L18.6718 73.6716C12.5966 73.6716 7.67163 68.7467 7.67163 62.6715Z" stroke="#E66C37" stroke-miterlimit="8" fill="#FF0000" fill-rule="evenodd"/></g></g></g><path d="M235.5 86.5002C235.5 80.425 240.425 75.5001 246.5 75.5001L374.5 75.5001C380.575 75.5001 385.5 80.425 385.5 86.5002L385.5 130.5C385.5 136.575 380.575 141.5 374.5 141.5L246.5 141.5C240.425 141.5 235.5 136.575 235.5 130.5Z" stroke="#E66C37" stroke-width="1.33333" stroke-miterlimit="8" fill="url(#fill30)" fill-rule="evenodd"/><g clip-path="url(#clip31)"><g filter="url(#fx7)" transform="translate(65 64)"><g><path d="M7.67162 18.8385C7.67162 12.6712 12.6712 7.67162 18.8385 7.67162L146.505 7.67162C152.672 7.67162 157.672 12.6712 157.672 18.8385L157.672 63.5048C157.672 69.6721 152.672 74.6716 146.505 74.6716L18.8385 74.6716C12.6712 74.6716 7.67162 69.6721 7.67162 63.5048Z" stroke="#E66C37" stroke-miterlimit="8" fill="#FF0000" fill-rule="evenodd"/></g></g></g><path d="M75.5001 85.6669C75.5001 79.4996 80.4996 74.5001 86.6669 74.5001L214.333 74.5001C220.5 74.5001 225.5 79.4996 225.5 85.6669L225.5 130.333C225.5 136.5 220.5 141.5 214.333 141.5L86.6669 141.5C80.4996 141.5 75.5001 136.5 75.5001 130.333Z" stroke="#E66C37" stroke-width="1.33333" stroke-miterlimit="8" fill="url(#fill32)" fill-rule="evenodd"/><g filter="url(#fx8)" transform="translate(5 287)"><g><path d="M7.67163 28.3438C7.67163 16.9269 16.9269 7.67163 28.3438 7.67163L406.999 7.67163C418.416 7.67163 427.672 16.9269 427.672 28.3438L427.672 408.999C427.672 420.416 418.416 429.672 406.999 429.672L28.3438 429.672C16.9269 429.672 7.67163 420.416 7.67163 408.999Z" stroke="#E66C37" stroke-miterlimit="8" fill="#FF0000" fill-rule="evenodd"/></g></g><path d="M15.5001 318.172C15.5001 306.755 24.7553 297.5 36.1722 297.5L414.828 297.5C426.245 297.5 435.5 306.755 435.5 318.172L435.5 698.828C435.5 710.245 426.245 719.5 414.828 719.5L36.1722 719.5C24.7553 719.5 15.5001 710.245 15.5001 698.828Z" stroke="#E66C37" stroke-width="1.33333" stroke-miterlimit="8" fill="url(#fill33)" fill-rule="evenodd"/><g clip-path="url(#clip34)"><g filter="url(#fx9)" transform="translate(430 524)"><g><path d="M7.67163 18.6718C7.67163 12.5966 12.5966 7.67163 18.6718 7.67163L147.671 7.67163C153.747 7.67163 158.672 12.5966 158.672 18.6718L158.672 62.6714C158.672 68.7467 153.747 73.6716 147.671 73.6716L18.6718 73.6716C12.5966 73.6716 7.67163 68.7467 7.67163 62.6714Z" stroke="#E66C37" stroke-miterlimit="8" fill="#FF0000" fill-rule="evenodd"/></g></g></g><path d="M440.5 545.5C440.5 539.425 445.425 534.5 451.5 534.5L580.5 534.5C586.575 534.5 591.5 539.425 591.5 545.5L591.5 589.5C591.5 595.575 586.575 600.5 580.5 600.5L451.5 600.5C445.425 600.5 440.5 595.575 440.5 589.5Z" stroke="#E66C37" stroke-width="1.33333" stroke-miterlimit="8" fill="url(#fill35)" fill-rule="evenodd"/><g clip-path="url(#clip36)"><g filter="url(#fx10)" transform="translate(831 524)"><g><path d="M7.67163 18.6718C7.67163 12.5966 12.5966 7.67163 18.6718 7.67163L147.671 7.67163C153.747 7.67163 158.672 12.5966 158.672 18.6718L158.672 62.6714C158.672 68.7467 153.747 73.6716 147.671 73.6716L18.6718 73.6716C12.5966 73.6716 7.67163 68.7467 7.67163 62.6714Z" stroke="#E66C37" stroke-miterlimit="8" fill="#FF0000" fill-rule="evenodd"/></g></g></g><path d="M841.5 545.5C841.5 539.425 846.425 534.5 852.5 534.5L981.5 534.5C987.575 534.5 992.5 539.425 992.5 545.5L992.5 589.5C992.5 595.575 987.575 600.5 981.5 600.5L852.5 600.5C846.425 600.5 841.5 595.575 841.5 589.5Z" stroke="#E66C37" stroke-width="1.33333" stroke-miterlimit="8" fill="url(#fill37)" fill-rule="evenodd"/><g clip-path="url(#clip38)"><g filter="url(#fx11)" transform="translate(430 600)"><g><path d="M7.67163 18.6718C7.67163 12.5966 12.5966 7.67163 18.6718 7.67163L147.671 7.67163C153.747 7.67163 158.672 12.5966 158.672 18.6718L158.672 62.6714C158.672 68.7467 153.747 73.6716 147.671 73.6716L18.6718 73.6716C12.5966 73.6716 7.67163 68.7467 7.67163 62.6714Z" stroke="#E66C37" stroke-miterlimit="8" fill="#FF0000" fill-rule="evenodd"/></g></g></g><path d="M440.5 621.5C440.5 615.425 445.425 610.5 451.5 610.5L580.5 610.5C586.575 610.5 591.5 615.425 591.5 621.5L591.5 665.5C591.5 671.575 586.575 676.5 580.5 676.5L451.5 676.5C445.425 676.5 440.5 671.575 440.5 665.5Z" stroke="#E66C37" stroke-width="1.33333" stroke-miterlimit="8" fill="url(#fill39)" fill-rule="evenodd"/><g clip-path="url(#clip40)"><g filter="url(#fx12)" transform="translate(831 600)"><g><path d="M7.67163 18.6718C7.67163 12.5966 12.5966 7.67163 18.6718 7.67163L147.671 7.67163C153.747 7.67163 158.672 12.5966 158.672 18.6718L158.672 62.6714C158.672 68.7467 153.747 73.6716 147.671 73.6716L18.6718 73.6716C12.5966 73.6716 7.67163 68.7467 7.67163 62.6714Z" stroke="#E66C37" stroke-miterlimit="8" fill="#FF0000" fill-rule="evenodd"/></g></g></g><path d="M841.5 621.5C841.5 615.425 846.425 610.5 852.5 610.5L981.5 610.5C987.575 610.5 992.5 615.425 992.5 621.5L992.5 665.5C992.5 671.575 987.575 676.5 981.5 676.5L852.5 676.5C846.425 676.5 841.5 671.575 841.5 665.5Z" stroke="#E66C37" stroke-width="1.33333" stroke-miterlimit="8" fill="url(#fill41)" fill-rule="evenodd"/><g clip-path="url(#clip42)"><g filter="url(#fx13)" transform="translate(630 524)"><g><path d="M7.67163 18.6718C7.67163 12.5966 12.5966 7.67163 18.6718 7.67163L147.671 7.67163C153.747 7.67163 158.672 12.5966 158.672 18.6718L158.672 62.6714C158.672 68.7467 153.747 73.6716 147.671 73.6716L18.6718 73.6716C12.5966 73.6716 7.67163 68.7467 7.67163 62.6714Z" stroke="#E66C37" stroke-miterlimit="8" fill="#FF0000" fill-rule="evenodd"/></g></g></g><path d="M640.5 545.5C640.5 539.425 645.425 534.5 651.5 534.5L780.5 534.5C786.575 534.5 791.5 539.425 791.5 545.5L791.5 589.5C791.5 595.575 786.575 600.5 780.5 600.5L651.5 600.5C645.425 600.5 640.5 595.575 640.5 589.5Z" stroke="#E66C37" stroke-width="1.33333" stroke-miterlimit="8" fill="url(#fill43)" fill-rule="evenodd"/><g filter="url(#fx14)" transform="translate(437 -6)"><g><path d="M7.67163 29.4629C7.67163 15.2188 19.2188 3.67163 33.4628 3.67163L525.88 3.67163C540.124 3.67163 551.672 15.2188 551.672 29.4629L551.672 501.88C551.672 516.124 540.124 527.672 525.88 527.672L33.4628 527.672C19.2188 527.672 7.67163 516.124 7.67163 501.88Z" stroke="#E66C37" stroke-miterlimit="8" fill="#FF0000" fill-rule="evenodd"/></g></g><path d="M447.5 26.2913C447.5 12.0472 459.047 0.500053 473.291 0.500053L965.709 0.500053C979.953 0.500053 991.5 12.0472 991.5 26.2913L991.5 498.709C991.5 512.953 979.953 524.5 965.709 524.5L473.291 524.5C459.047 524.5 447.5 512.953 447.5 498.709Z" stroke="#E66C37" stroke-width="1.33333" stroke-miterlimit="8" fill="url(#fill44)" fill-rule="evenodd"/><g filter="url(#fx15)" transform="translate(991 -6)"><g><path d="M7.67163 14.4039C7.67163 6.81971 13.8198 0.67152 21.404 0.67152L272.939 0.67152C280.523 0.67152 286.672 6.81971 286.672 14.4039L286.672 589.939C286.672 597.523 280.523 603.672 272.939 603.672L21.404 603.672C13.8198 603.672 7.67163 597.523 7.67163 589.939Z" stroke="#E66C37" stroke-miterlimit="8" fill="#FF0000" fill-rule="evenodd"/></g></g><path d="M1001.5 11.2323C1001.5 3.64814 1007.65-2.50005 1015.23-2.50005L1266.77-2.50005C1274.35-2.50005 1280.5 3.64814 1280.5 11.2323L1280.5 586.768C1280.5 594.352 1274.35 600.5 1266.77 600.5L1015.23 600.5C1007.65 600.5 1001.5 594.352 1001.5 586.768Z" stroke="#E66C37" stroke-width="1.33333" stroke-miterlimit="8" fill="url(#fill45)" fill-rule="evenodd"/></g></svg>