<svg width="1749" height="1250" xmlns="http://www.w3.org/2000/svg" xmlns:xlink="http://www.w3.org/1999/xlink" overflow="hidden"><defs><clipPath id="clip0"><rect x="0" y="0" width="1749" height="1250"/></clipPath></defs><g clip-path="url(#clip0)"><rect x="0" y="0" width="1749" height="1250.12"/><path d="M19 135.347C19 126.877 25.8652 120.011 34.3339 120.011L387.666 120.011C396.135 120.011 403 126.877 403 135.347L403 276.693C403 285.162 396.135 292.028 387.666 292.028L34.3339 292.028C25.8652 292.028 19 285.162 19 276.693Z" stroke="#404040" stroke-width="1.99981" stroke-miterlimit="8" fill="#404040" fill-rule="evenodd"/><path d="M467 135.347C467 126.877 473.865 120.011 482.334 120.011L835.666 120.011C844.135 120.011 851 126.877 851 135.347L851 276.692C851 285.162 844.135 292.028 835.666 292.028L482.334 292.028C473.865 292.028 467 285.162 467 276.692Z" stroke="#404040" stroke-width="1.99981" stroke-miterlimit="8" fill="#404040" fill-rule="evenodd"/><path d="M892 135.347C892 126.877 898.865 120.011 907.334 120.011L1260.67 120.011C1269.13 120.011 1276 126.877 1276 135.347L1276 276.692C1276 285.162 1269.13 292.028 1260.67 292.028L907.334 292.028C898.865 292.028 892 285.162 892 276.692Z" stroke="#404040" stroke-width="1.99981" stroke-miterlimit="8" fill="#404040" fill-rule="evenodd"/><path d="M1337 135.347C1337 126.877 1343.87 120.011 1352.33 120.011L1705.67 120.011C1714.13 120.011 1721 126.877 1721 135.347L1721 276.692C1721 285.162 1714.13 292.028 1705.67 292.028L1352.33 292.028C1343.87 292.028 1337 285.162 1337 276.692Z" stroke="#404040" stroke-width="1.99981" stroke-miterlimit="8" fill="#404040" fill-rule="evenodd"/><path d="M19 976.59C19 962.507 30.4152 951.091 44.4967 951.091L1698.5 951.091C1712.58 951.091 1724 962.507 1724 976.59L1724 1211.62C1724 1225.7 1712.58 1237.12 1698.5 1237.12L44.4967 1237.12C30.4152 1237.12 19 1225.7 19 1211.62Z" stroke="#404040" stroke-width="1.99981" stroke-miterlimit="8" fill="#404040" fill-rule="evenodd"/><path d="M19 650.559C19 636.476 30.4152 625.06 44.4967 625.06L1698.5 625.06C1712.58 625.06 1724 636.476 1724 650.559L1724 885.588C1724 899.67 1712.58 911.087 1698.5 911.087L44.4967 911.087C30.4152 911.087 19 899.67 19 885.588Z" stroke="#404040" stroke-width="1.99981" stroke-miterlimit="8" fill="#404040" fill-rule="evenodd"/><path d="M19 354.589C19 342.131 29.0983 332.032 41.5551 332.032L828.445 332.032C840.902 332.032 851 342.131 851 354.589L851 562.498C851 574.956 840.902 585.056 828.445 585.056L41.5551 585.056C29.0983 585.056 19 574.956 19 562.498Z" stroke="#404040" stroke-width="1.99981" stroke-miterlimit="8" fill="#404040" fill-rule="evenodd"/><path d="M892 354.589C892 342.131 902.098 332.032 914.555 332.032L1701.44 332.032C1713.9 332.032 1724 342.131 1724 354.589L1724 562.498C1724 574.956 1713.9 585.056 1701.44 585.056L914.555 585.056C902.098 585.056 892 574.956 892 562.498Z" stroke="#404040" stroke-width="1.99981" stroke-miterlimit="8" fill="#404040" fill-rule="evenodd"/></g></svg>