<svg width="1664" height="936" xmlns="http://www.w3.org/2000/svg" xmlns:xlink="http://www.w3.org/1999/xlink" overflow="hidden"><g><rect x="0" y="0" width="1664" height="935.812" fill="#FFFFFF"/><rect x="0" y="0" width="1664" height="935.812" fill="#E8E8E8"/><rect x="0" y="0" width="224" height="935.812" fill="#BFBFBF"/><path d="M243 27.0539C243 15.9777 251.981 6.99864 263.059 6.99864L1635.94 6.99864C1647.02 6.99864 1656 15.9777 1656 27.0539L1656 636.813C1656 647.889 1647.02 656.868 1635.94 656.868L263.059 656.868C251.981 656.868 243 647.889 243 636.813Z" fill="#7F7F7F" fill-rule="evenodd"/><path d="M246 679.578C246 675.319 249.454 671.865 253.715 671.865L1648.29 671.865C1652.55 671.865 1656 675.319 1656 679.578L1656 914.102C1656 918.362 1652.55 921.815 1648.29 921.815L253.715 921.815C249.454 921.815 246 918.362 246 914.102Z" fill="#7F7F7F" fill-rule="evenodd"/></g></svg>